{
  "accessors": [
    {
      "bufferView": 2,
      "componentType": 5126,
      "count": 3023,
      "max": [
        1.7428618669509888,
        11.338276863098145,
        3.0535104274749756
      ],
      "min": [
        -6.218810558319092,
        4.8757004737854,
        -1.9181077480316162
      ],
      "type": "VEC3"
    },
    {
      "bufferView": 2,
      "byteOffset": 36276,
      "componentType": 5126,
      "count": 3023,
      "max": [
        1.0,
        1.0,
        1.0
      ],
      "min": [
        -1.0,
        -1.0,
        -1.0
      ],
      "type": "VEC3"
    },
    {
      "bufferView": 3,
      "componentType": 5126,
      "count": 3023,
      "max": [
        1.0,
        1.0,
        0.9999999403953552,
        1.0
      ],
      "min": [
        -1.0,
        -1.0,
        -1.0,
        -1.0
      ],
      "type": "VEC4"
    },
    {
      "bufferView": 1,
      "componentType": 5126,
      "count": 3023,
      "max": [
        1.0,
        1.0
      ],
      "min": [
        0.0,
        0.0
      ],
      "type": "VEC2"
    },
    {
      "bufferView": 1,
      "byteOffset": 24184,
      "componentType": 5126,
      "count": 3023,
      "max": [
        1.0,
        1.0
      ],
      "min": [
        0.0,
        0.0
      ],
      "type": "VEC2"
    },
    {
      "bufferView": 1,
      "byteOffset": 48368,
      "componentType": 5126,
      "count": 3023,
      "max": [
        1.0,
        1.0
      ],
      "min": [
        0.0,
        0.0
      ],
      "type": "VEC2"
    },
    {
      "bufferView": 1,
      "byteOffset": 72552,
      "componentType": 5126,
      "count": 3023,
      "max": [
        1.0,
        1.0
      ],
      "min": [
        0.0,
        0.0
      ],
      "type": "VEC2"
    },
    {
      "bufferView": 0,
      "componentType": 5125,
      "count": 6330,
      "type": "SCALAR"
    },
    {
      "bufferView": 2,
      "byteOffset": 72552,
      "componentType": 5126,
      "count": 5371,
      "max": [
        2.832967519760132,
        9.24929141998291,
        3.5229885578155518
      ],
      "min": [
        -2.782094717025757,
        -0.0001724925241433084,
        -2.965327262878418
      ],
      "type": "VEC3"
    },
    {
      "bufferView": 2,
      "byteOffset": 137004,
      "componentType": 5126,
      "count": 5371,
      "max": [
        1.0,
        1.0,
        1.0
      ],
      "min": [
        -1.0,
        -1.0,
        -1.0
      ],
      "type": "VEC3"
    },
    {
      "bufferView": 3,
      "byteOffset": 48368,
      "componentType": 5126,
      "count": 5371,
      "max": [
        1.0,
        1.0,
        1.0,
        1.0
      ],
      "min": [
        -1.0,
        -1.0,
        -1.0,
        -1.0
      ],
      "type": "VEC4"
    },
    {
      "bufferView": 1,
      "byteOffset": 96736,
      "componentType": 5126,
      "count": 5371,
      "max": [
        1.0221552848815918,
        1.0221552848815918
      ],
      "min": [
        -0.13611489534378052,
        -0.15390527248382568
      ],
      "type": "VEC2"
    },
    {
      "bufferView": 1,
      "byteOffset": 139704,
      "componentType": 5126,
      "count": 5371,
      "max": [
        1.0221552848815918,
        1.0221552848815918
      ],
      "min": [
        -0.13611489534378052,
        -0.15390527248382568
      ],
      "type": "VEC2"
    },
    {
      "bufferView": 1,
      "byteOffset": 182672,
      "componentType": 5126,
      "count": 5371,
      "max": [
        1.0221552848815918,
        1.0221552848815918
      ],
      "min": [
        -0.13611489534378052,
        -0.15390527248382568
      ],
      "type": "VEC2"
    },
    {
      "bufferView": 1,
      "byteOffset": 225640,
      "componentType": 5126,
      "count": 5371,
      "max": [
        1.0221552848815918,
        1.0221552848815918
      ],
      "min": [
        -0.13611489534378052,
        -0.15390527248382568
      ],
      "type": "VEC2"
    },
    {
      "bufferView": 0,
      "byteOffset": 25320,
      "componentType": 5125,
      "count": 12051,
      "type": "SCALAR"
    },
    {
      "bufferView": 2,
      "byteOffset": 201456,
      "componentType": 5126,
      "count": 8801,
      "max": [
        2.408907651901245,
        10.835298538208008,
        2.823233127593994
      ],
      "min": [
        -4.162725925445557,
        0.5945567488670349,
        -1.2528575658798218
      ],
      "type": "VEC3"
    },
    {
      "bufferView": 2,
      "byteOffset": 307068,
      "componentType": 5126,
      "count": 8801,
      "max": [
        1.0,
        1.0,
        1.0
      ],
      "min": [
        -1.0,
        -1.0,
        -1.0
      ],
      "type": "VEC3"
    },
    {
      "bufferView": 3,
      "byteOffset": 134304,
      "componentType": 5126,
      "count": 8801,
      "max": [
        1.0,
        1.0,
        1.0,
        1.0
      ],
      "min": [
        -1.0,
        -1.0,
        -1.0,
        -1.0
      ],
      "type": "VEC4"
    },
    {
      "bufferView": 1,
      "byteOffset": 268608,
      "componentType": 5126,
      "count": 8801,
      "max": [
        1.000000238418579,
        1.0000001192092896
      ],
      "min": [
        0.0,
        -0.06600677967071533
      ],
      "type": "VEC2"
    },
    {
      "bufferView": 1,
      "byteOffset": 339016,
      "componentType": 5126,
      "count": 8801,
      "max": [
        1.000000238418579,
        1.0000001192092896
      ],
      "min": [
        0.0,
        -0.06600677967071533
      ],
      "type": "VEC2"
    },
    {
      "bufferView": 1,
      "byteOffset": 409424,
      "componentType": 5126,
      "count": 8801,
      "max": [
        1.000000238418579,
        1.0000001192092896
      ],
      "min": [
        0.0,
        -0.06600677967071533
      ],
      "type": "VEC2"
    },
    {
      "bufferView": 1,
      "byteOffset": 479832,
      "componentType": 5126,
      "count": 8801,
      "max": [
        1.000000238418579,
        1.0000001192092896
      ],
      "min": [
        0.0,
        -0.06600677967071533
      ],
      "type": "VEC2"
    },
    {
      "bufferView": 0,
      "byteOffset": 73524,
      "componentType": 5125,
      "count": 26190,
      "type": "SCALAR"
    },
    {
      "bufferView": 2,
      "byteOffset": 412680,
      "componentType": 5126,
      "count": 798,
      "max": [
        1.719711422920227,
        11.224950790405273,
        0.42629751563072205
      ],
      "min": [
        -3.9690024852752686,
        0.471518337726593,
        -2.53254771232605
      ],
      "type": "VEC3"
    },
    {
      "bufferView": 2,
      "byteOffset": 422256,
      "componentType": 5126,
      "count": 798,
      "max": [
        1.0,
        1.0,
        1.0
      ],
      "min": [
        -1.0,
        -1.0,
        -1.0
      ],
      "type": "VEC3"
    },
    {
      "bufferView": 3,
      "byteOffset": 275120,
      "componentType": 5126,
      "count": 798,
      "max": [
        1.0,
        1.0,
        1.0,
        1.0
      ],
      "min": [
        -1.0,
        -1.0,
        -1.0,
        -1.0
      ],
      "type": "VEC4"
    },
    {
      "bufferView": 1,
      "byteOffset": 550240,
      "componentType": 5126,
      "count": 798,
      "max": [
        1.3383384943008423,
        1.1249936819076538
      ],
      "min": [
        -0.7453771233558655,
        -0.1870015561580658
      ],
      "type": "VEC2"
    },
    {
      "bufferView": 1,
      "byteOffset": 556624,
      "componentType": 5126,
      "count": 798,
      "max": [
        1.3383384943008423,
        1.1249936819076538
      ],
      "min": [
        -0.7453771233558655,
        -0.1870015561580658
      ],
      "type": "VEC2"
    },
    {
      "bufferView": 1,
      "byteOffset": 563008,
      "componentType": 5126,
      "count": 798,
      "max": [
        1.3383384943008423,
        1.1249936819076538
      ],
      "min": [
        -0.7453771233558655,
        -0.1870015561580658
      ],
      "type": "VEC2"
    },
    {
      "bufferView": 0,
      "byteOffset": 178284,
      "componentType": 5125,
      "count": 1722,
      "type": "SCALAR"
    },
    {
      "bufferView": 2,
      "byteOffset": 431832,
      "componentType": 5126,
      "count": 11820,
      "max": [
        1.9719293117523193,
        10.467938423156738,
        0.15994080901145935
      ],
      "min": [
        -4.304531574249268,
        0.7725861072540283,
        -2.8865582942962646
      ],
      "type": "VEC3"
    },
    {
      "bufferView": 2,
      "byteOffset": 573672,
      "componentType": 5126,
      "count": 11820,
      "max": [
        0.9989845156669617,
        1.0,
        1.0
      ],
      "min": [
        -0.999703586101532,
        -1.0,
        -1.0
      ],
      "type": "VEC3"
    },
    {
      "bufferView": 3,
      "byteOffset": 287888,
      "componentType": 5126,
      "count": 11820,
      "max": [
        0.9999985098838806,
        0.9999396204948425,
        0.9999920129776001,
        -1.0
      ],
      "min": [
        -0.9999839067459106,
        -0.9999979138374329,
        -0.999998152256012,
        -1.0
      ],
      "type": "VEC4"
    },
    {
      "bufferView": 1,
      "byteOffset": 569392,
      "componentType": 5126,
      "count": 11820,
      "max": [
        1.0,
        1.0
      ],
      "min": [
        0.0,
        0.0
      ],
      "type": "VEC2"
    },
    {
      "bufferView": 1,
      "byteOffset": 663952,
      "componentType": 5126,
      "count": 11820,
      "max": [
        1.0,
        1.0
      ],
      "min": [
        0.0,
        0.0
      ],
      "type": "VEC2"
    },
    {
      "bufferView": 1,
      "byteOffset": 758512,
      "componentType": 5126,
      "count": 11820,
      "max": [
        1.0,
        1.0
      ],
      "min": [
        0.0,
        0.0
      ],
      "type": "VEC2"
    },
    {
      "bufferView": 0,
      "byteOffset": 185172,
      "componentType": 5125,
      "count": 42768,
      "type": "SCALAR"
    },
    {
      "bufferView": 2,
      "byteOffset": 715512,
      "componentType": 5126,
      "count": 4,
      "max": [
        1.1714285612106323,
        11.257878303527832,
        -0.9983928203582764
      ],
      "min": [
        -1.8091959953308105,
        6.468924045562744,
        -0.9983929991722107
      ],
      "type": "VEC3"
    },
    {
      "bufferView": 2,
      "byteOffset": 715560,
      "componentType": 5126,
      "count": 4,
      "max": [
        0.0,
        -3.340581855582059e-08,
        1.0
      ],
      "min": [
        0.0,
        -3.340581855582059e-08,
        1.0
      ],
      "type": "VEC3"
    },
    {
      "bufferView": 1,
      "byteOffset": 853072,
      "componentType": 5126,
      "count": 4,
      "max": [
        1.0,
        1.0
      ],
      "min": [
        0.0,
        0.0
      ],
      "type": "VEC2"
    },
    {
      "bufferView": 1,
      "byteOffset": 853104,
      "componentType": 5126,
      "count": 4,
      "max": [
        1.0,
        1.0
      ],
      "min": [
        0.0,
        0.0
      ],
      "type": "VEC2"
    },
    {
      "bufferView": 0,
      "byteOffset": 356244,
      "componentType": 5125,
      "count": 6,
      "type": "SCALAR"
    },
    {
      "bufferView": 2,
      "byteOffset": 715608,
      "componentType": 5126,
      "count": 4,
      "max": [
        -4.039785385131836,
        9.894076347351074,
        2.897702217102051
      ],
      "min": [
        -6.06912088394165,
        7.655243396759033,
        -0.5262404680252075
      ],
      "type": "VEC3"
    },
    {
      "bufferView": 2,
      "byteOffset": 715656,
      "componentType": 5126,
      "count": 4,
      "max": [
        0.8602550029754639,
        0.0,
        0.5098640322685242
      ],
      "min": [
        0.8602550029754639,
        0.0,
        0.5098640322685242
      ],
      "type": "VEC3"
    },
    {
      "bufferView": 1,
      "byteOffset": 853136,
      "componentType": 5126,
      "count": 4,
      "max": [
        1.0,
        1.0
      ],
      "min": [
        0.0,
        0.0
      ],
      "type": "VEC2"
    },
    {
      "bufferView": 1,
      "byteOffset": 853168,
      "componentType": 5126,
      "count": 4,
      "max": [
        1.0,
        1.0
      ],
      "min": [
        0.0,
        0.0
      ],
      "type": "VEC2"
    },
    {
      "bufferView": 0,
      "byteOffset": 356268,
      "componentType": 5125,
      "count": 6,
      "type": "SCALAR"
    },
    {
      "bufferView": 2,
      "byteOffset": 715704,
      "componentType": 5126,
      "count": 4,
      "max": [
        1.4355705976486206,
        5.70501184463501,
        3.4601714611053467
      ],
      "min": [
        -0.3890398144721985,
        5.522312641143799,
        2.6187264919281006
      ],
      "type": "VEC3"
    },
    {
      "bufferView": 2,
      "byteOffset": 715752,
      "componentType": 5126,
      "count": 4,
      "max": [
        0.0,
        0.9772302508354187,
        0.21218164265155792
      ],
      "min": [
        0.0,
        0.9772302508354187,
        0.21218164265155792
      ],
      "type": "VEC3"
    },
    {
      "bufferView": 1,
      "byteOffset": 853200,
      "componentType": 5126,
      "count": 4,
      "max": [
        0.9351255297660828,
        1.0395574569702148
      ],
      "min": [
        0.03494269773364067,
        0.0027933791279792786
      ],
      "type": "VEC2"
    },
    {
      "bufferView": 1,
      "byteOffset": 853232,
      "componentType": 5126,
      "count": 4,
      "max": [
        0.9351255297660828,
        1.0395574569702148
      ],
      "min": [
        0.03494269773364067,
        0.0027933791279792786
      ],
      "type": "VEC2"
    },
    {
      "bufferView": 0,
      "byteOffset": 356292,
      "componentType": 5125,
      "count": 6,
      "type": "SCALAR"
    }
  ],
  "asset": {
    "extras": {
      "author": "ItsMeFGU (https://sketchfab.com/itsmefgu)",
      "license": "CC-BY-4.0 (http://creativecommons.org/licenses/by/4.0/)",
      "source": "https://sketchfab.com/3d-models/sci-fi-pc-2edace227e7f455c82718913c82f2c6d",
      "title": "Sci-Fi PC"
    },
    "generator": "Sketchfab-13.6.0",
    "version": "2.0"
  },
  "bufferViews": [
    {
      "buffer": 0,
      "byteLength": 356316,
      "name": "floatBufferViews",
      "target": 34963
    },
    {
      "buffer": 0,
      "byteLength": 853264,
      "byteOffset": 356316,
      "byteStride": 8,
      "name": "floatBufferViews",
      "target": 34962
    },
    {
      "buffer": 0,
      "byteLength": 715800,
      "byteOffset": 1209580,
      "byteStride": 12,
      "name": "floatBufferViews",
      "target": 34962
    },
    {
      "buffer": 0,
      "byteLength": 477008,
      "byteOffset": 1925380,
      "byteStride": 16,
      "name": "floatBufferViews",
      "target": 34962
    }
  ],
  "buffers": [
    {
      "byteLength": 2402388,
      "uri": "scene.bin"
    }
  ],
  "images": [
    {
      "uri": "textures/Besi_4_baseColor.jpeg"
    },
    {
      "uri": "textures/Besi_4_metallicRoughness.png"
    },
    {
      "uri": "textures/Besi_4_normal.jpeg"
    },
    {
      "uri": "textures/Besi_baseColor.jpeg"
    },
    {
      "uri": "textures/Besi_metallicRoughness.png"
    },
    {
      "uri": "textures/Besi_normal.jpeg"
    },
    {
      "uri": "textures/Besi_2_baseColor.jpeg"
    },
    {
      "uri": "textures/Besi_2_metallicRoughness.png"
    },
    {
      "uri": "textures/Besi_2_normal.jpeg"
    },
    {
      "uri": "textures/Besi_3_metallicRoughness.png"
    },
    {
      "uri": "textures/Besi_3_normal.png"
    },
    {
      "uri": "textures/Kabel_metallicRoughness.png"
    },
    {
      "uri": "textures/Kabel_normal.png"
    },
    {
      "uri": "textures/bd8dc4ef97f708c52154a656a9a7ba50_baseColor.jpeg"
    },
    {
      "uri": "textures/futuristic-overlays-by-Picsartallpng_baseColor.jpeg"
    },
    {
      "uri": "textures/Keyboard_baseColor.jpeg"
    }
  ],
  "materials": [
    {
      "doubleSided": true,
      "name": "Besi_4",
      "normalTexture": {
        "index": 2
      },
      "pbrMetallicRoughness": {
        "baseColorTexture": {
          "index": 0
        },
        "metallicRoughnessTexture": {
          "index": 1
        }
      }
    },
    {
      "doubleSided": true,
      "name": "Besi",
      "normalTexture": {
        "index": 5,
        "texCoord": 2
      },
      "pbrMetallicRoughness": {
        "baseColorTexture": {
          "index": 3
        },
        "metallicRoughnessTexture": {
          "index": 4,
          "texCoord": 1
        }
      }
    },
    {
      "doubleSided": true,
      "name": "Besi_2",
      "normalTexture": {
        "index": 8,
        "texCoord": 2
      },
      "pbrMetallicRoughness": {
        "baseColorTexture": {
          "index": 6
        },
        "metallicRoughnessTexture": {
          "index": 7,
          "texCoord": 1
        }
      }
    },
    {
      "doubleSided": true,
      "name": "Besi_3",
      "normalTexture": {
        "index": 10,
        "texCoord": 1
      },
      "pbrMetallicRoughness": {
        "baseColorFactor": [
          0.329966,
          0.301965,
          0.132564,
          1.0
        ],
        "metallicRoughnessTexture": {
          "index": 9
        }
      }
    },
    {
      "doubleSided": true,
      "name": "Kabel",
      "normalTexture": {
        "index": 12,
        "texCoord": 1
      },
      "pbrMetallicRoughness": {
        "baseColorFactor": [
          0.0235107,
          0.0235107,
          0.0235107,
          1.0
        ],
        "metallicRoughnessTexture": {
          "index": 11
        }
      }
    },
    {
      "doubleSided": true,
      "emissiveFactor": [
        1.0,
        1.0,
        1.0
      ],
      "emissiveTexture": {
        "index": 13
      },
      "name": "bd8dc4ef97f708c52154a656a9a7ba50",
      "pbrMetallicRoughness": {
        "baseColorTexture": {
          "index": 13
        },
        "metallicFactor": 0.0,
        "roughnessFactor": 0.5
      }
    },
    {
      "doubleSided": true,
      "emissiveFactor": [
        1.0,
        1.0,
        1.0
      ],
      "emissiveTexture": {
        "index": 14
      },
      "name": "futuristic-overlays-by-Picsartallpng",
      "pbrMetallicRoughness": {
        "baseColorTexture": {
          "index": 14
        },
        "metallicFactor": 0.0,
        "roughnessFactor": 0.5
      }
    },
    {
      "doubleSided": true,
      "emissiveFactor": [
        1.0,
        1.0,
        1.0
      ],
      "emissiveTexture": {
        "index": 15
      },
      "name": "Keyboard",
      "pbrMetallicRoughness": {
        "baseColorTexture": {
          "index": 15
        },
        "metallicFactor": 0.0,
        "roughnessFactor": 0.5
      }
    }
  ],
  "meshes": [
    {
      "name": "Object_0",
      "primitives": [
        {
          "attributes": {
            "NORMAL": 1,
            "POSITION": 0,
            "TANGENT": 2,
            "TEXCOORD_0": 3,
            "TEXCOORD_1": 4,
            "TEXCOORD_2": 5,
            "TEXCOORD_3": 6
          },
          "indices": 7,
          "material": 0,
          "mode": 4
        }
      ]
    },
    {
      "name": "Object_1",
      "primitives": [
        {
          "attributes": {
            "NORMAL": 9,
            "POSITION": 8,
            "TANGENT": 10,
            "TEXCOORD_0": 11,
            "TEXCOORD_1": 12,
            "TEXCOORD_2": 13,
            "TEXCOORD_3": 14
          },
          "indices": 15,
          "material": 1,
          "mode": 4
        }
      ]
    },
    {
      "name": "Object_2",
      "primitives": [
        {
          "attributes": {
            "NORMAL": 17,
            "POSITION": 16,
            "TANGENT": 18,
            "TEXCOORD_0": 19,
            "TEXCOORD_1": 20,
            "TEXCOORD_2": 21,
            "TEXCOORD_3": 22
          },
          "indices": 23,
          "material": 2,
          "mode": 4
        }
      ]
    },
    {
      "name": "Object_3",
      "primitives": [
        {
          "attributes": {
            "NORMAL": 25,
            "POSITION": 24,
            "TANGENT": 26,
            "TEXCOORD_0": 27,
            "TEXCOORD_1": 28,
            "TEXCOORD_2": 29
          },
          "indices": 30,
          "material": 3,
          "mode": 4
        }
      ]
    },
    {
      "name": "Object_4",
      "primitives": [
        {
          "attributes": {
            "NORMAL": 32,
            "POSITION": 31,
            "TANGENT": 33,
            "TEXCOORD_0": 34,
            "TEXCOORD_1": 35,
            "TEXCOORD_2": 36
          },
          "indices": 37,
          "material": 4,
          "mode": 4
        }
      ]
    },
    {
      "name": "Object_5",
      "primitives": [
        {
          "attributes": {
            "NORMAL": 39,
            "POSITION": 38,
            "TEXCOORD_0": 40,
            "TEXCOORD_1": 41
          },
          "indices": 42,
          "material": 5,
          "mode": 4
        }
      ]
    },
    {
      "name": "Object_6",
      "primitives": [
        {
          "attributes": {
            "NORMAL": 44,
            "POSITION": 43,
            "TEXCOORD_0": 45,
            "TEXCOORD_1": 46
          },
          "indices": 47,
          "material": 6,
          "mode": 4
        }
      ]
    },
    {
      "name": "Object_7",
      "primitives": [
        {
          "attributes": {
            "NORMAL": 49,
            "POSITION": 48,
            "TEXCOORD_0": 50,
            "TEXCOORD_1": 51
          },
          "indices": 52,
          "material": 7,
          "mode": 4
        }
      ]
    }
  ],
  "nodes": [
    {
      "children": [
        1
      ],
      "matrix": [
        1.0,
        0.0,
        0.0,
        0.0,
        0.0,
        2.220446049250313e-16,
        -1.0,
        0.0,
        0.0,
        1.0,
        2.220446049250313e-16,
        0.0,
        0.0,
        0.0,
        0.0,
        1.0
      ],
      "name": "Sketchfab_model"
    },
    {
      "children": [
        2
      ],
      "name": "root"
    },
    {
      "children": [
        3
      ],
      "matrix": [
        1.0,
        0.0,
        0.0,
        0.0,
        0.0,
        2.220446049250313e-16,
        1.0,
        0.0,
        0.0,
        -1.0,
        2.220446049250313e-16,
        0.0,
        0.0,
        0.0,
        0.0,
        1.0
      ],
      "name": "GLTF_SceneRootNode"
    },
    {
      "children": [
        4,
        5,
        6,
        7,
        8,
        9,
        10,
        11
      ],
      "name": "PC_0"
    },
    {
      "mesh": 0,
      "name": "Object_4"
    },
    {
      "mesh": 1,
      "name": "Object_5"
    },
    {
      "mesh": 2,
      "name": "Object_6"
    },
    {
      "mesh": 3,
      "name": "Object_7"
    },
    {
      "mesh": 4,
      "name": "Object_8"
    },
    {
      "mesh": 5,
      "name": "Object_9"
    },
    {
      "mesh": 6,
      "name": "Object_10"
    },
    {
      "mesh": 7,
      "name": "Object_11"
    }
  ],
  "samplers": [
    {
      "magFilter": 9729,
      "minFilter": 9987,
      "wrapS": 10497,
      "wrapT": 10497
    },
    {
      "magFilter": 9729,
      "minFilter": 9987,
      "wrapS": 33071,
      "wrapT": 33071
    }
  ],
  "scene": 0,
  "scenes": [
    {
      "name": "Sketchfab_Scene",
      "nodes": [
        0
      ]
    }
  ],
  "textures": [
    {
      "sampler": 0,
      "source": 0
    },
    {
      "sampler": 0,
      "source": 1
    },
    {
      "sampler": 0,
      "source": 2
    },
    {
      "sampler": 0,
      "source": 3
    },
    {
      "sampler": 0,
      "source": 4
    },
    {
      "sampler": 0,
      "source": 5
    },
    {
      "sampler": 0,
      "source": 6
    },
    {
      "sampler": 0,
      "source": 7
    },
    {
      "sampler": 0,
      "source": 8
    },
    {
      "sampler": 0,
      "source": 9
    },
    {
      "sampler": 0,
      "source": 10
    },
    {
      "sampler": 0,
      "source": 11
    },
    {
      "sampler": 0,
      "source": 12
    },
    {
      "sampler": 1,
      "source": 13
    },
    {
      "sampler": 1,
      "source": 14
    },
    {
      "sampler": 0,
      "source": 15
    }
  ]
}
