<svg xmlns="http://www.w3.org/2000/svg" version="1.1" xmlns:xlink="http://www.w3.org/1999/xlink" xmlns:svgjs="http://svgjs.dev/svgjs" width="1000" height="623" viewBox="0 0 1000 623"><g transform="matrix(1,0,0,1,-0.6060606060606233,0.2522267206477409)"><svg viewBox="0 0 396 247" data-background-color="#c8c8c8" preserveAspectRatio="xMidYMid meet" height="623" width="1000" xmlns="http://www.w3.org/2000/svg" xmlns:xlink="http://www.w3.org/1999/xlink"><g id="tight-bounds" transform="matrix(1,0,0,1,0.2400000000000091,-0.09999999999999432)"><svg viewBox="0 0 395.52 247.2" height="247.2" width="395.52"><g><svg></svg></g><g><svg viewBox="0 0 395.52 247.2" height="247.2" width="395.52"><g transform="matrix(1,0,0,1,82.2946046511628,47.215199999999996)"><svg viewBox="0 0 230.93079069767438 152.7696" height="152.7696" width="230.93079069767438"><g><svg viewBox="0 0 230.93079069767438 152.7696" height="152.7696" width="230.93079069767438"><g><svg viewBox="0 0 230.93079069767444 152.76960000000003" height="152.7696" width="230.93079069767438"><g><svg viewBox="0 0 230.93079069767444 152.76960000000003" height="152.76960000000003" width="230.93079069767444"><g id="textblocktransform"><svg viewBox="0 0 230.93079069767444 152.76960000000003" height="152.76960000000003" width="230.93079069767444" id="textblock"><g><svg viewBox="0 0 230.93079069767444 152.76960000000003" height="152.76960000000003" width="230.93079069767444"><g transform="matrix(1,0,0,1,0,0)"><svg width="230.93079069767444" viewBox="0.3500000238418579 -34.400001525878906 52 34.400001525878906" height="152.76960000000003" data-palette-color="#000000"><path d="M25.95 0L21.15 0 18.85-8.75 7.3-8.75 5 0 0.35 0 10.3-34.4 16-34.4 25.95 0ZM13.1-30.7L8.25-12.4 17.9-12.4 13.1-30.7ZM52.35 0L47.7 0 47.7-16.15 35.2-16.15 35.2 0 30.55 0 30.55-34.4 35.2-34.4 35.2-19.95 47.7-19.95 47.7-34.4 52.35-34.4 52.35 0Z" opacity="1" transform="matrix(1,0,0,1,0,0)" fill="#ffffff" class="undefined-text-0" data-fill-palette-color="primary" id="text-0"></path></svg></g></svg></g></svg></g></svg></g></svg></g></svg></g></svg></g><g><path d="M239.065 0c68.262 0 123.6 55.338 123.6 123.6 0 68.262-55.338 123.6-123.6 123.6-30.402 0-58.24-10.976-79.768-29.183l11.147 0c19.26 14.022 42.974 22.294 68.621 22.295 64.458 0 116.712-52.254 116.712-116.712 0-64.458-52.254-116.712-116.712-116.712-25.647 0-49.361 8.272-68.621 22.295l-11.147 0c21.528-18.206 49.366-29.183 79.768-29.183z" fill="#ffffff" stroke="transparent" data-fill-palette-color="tertiary"></path></g></svg></g><defs></defs></svg><rect width="395.52" height="247.2" fill="none" stroke="none" visibility="hidden"></rect></g></svg></g></svg>